# xmcd CD database file
#
# Track frame offsets:
#	187
#	20680
#	39247
#	58157
#	75147
#	86647
#	104682
#	123495
#	140602
#	160770
#
# Disc length: 2360 seconds
#
# Revision: 4
# Processed by: cddbd v1.5PL3 Copyright (c) Steve Scherf et al.
# Submitted via: CDex 1.51
#
DISCID=7c09360a
DTITLE=EUROPE - Wings Of Tomorrow
DYEAR=1984
DGENRE=Hard Rock
TTITLE0=Stormwind
TTITLE1=Scream Of Anger
TTITLE2=Open Your Heart
TTITLE3=Treated Bad Again
TTITLE4=Aphasia
TTITLE5=Wings Of Tomorrow
TTITLE6=Wasted Time
TTITLE7=Lyin' Eyes
TTITLE8=Dreamer
TTITLE9=Dance The Night Away
EXTD=YEAR: 1984
EXTT0=
EXTT1=
EXTT2=
EXTT3=
EXTT4=
EXTT5=
EXTT6=
EXTT7=
EXTT8=
EXTT9=
PLAYORDER=
